<svg width="22" height="22" viewBox="0 0 22 22" fill="none" xmlns="http://www.w3.org/2000/svg">
<path fill-rule="evenodd" clip-rule="evenodd" d="M8 3.5C8.33486 3.5 8.62915 3.72198 8.72114 4.04396L9.53434 6.89015C9.89028 8.13593 10.8641 9.10972 12.1099 9.46566L14.956 10.2789C15.278 10.3709 15.5 10.6651 15.5 11C15.5 11.3349 15.278 11.6291 14.956 11.7211L12.1098 12.5343C10.8641 12.8903 9.89028 13.8641 9.53434 15.1099L8.72114 17.956C8.62915 18.278 8.33486 18.5 8 18.5C7.66514 18.5 7.37085 18.278 7.27886 17.956L6.46566 15.1099C6.10972 13.8641 5.13593 12.8903 3.89015 12.5343L1.04396 11.7211C0.721983 11.6291 0.5 11.3349 0.5 11C0.5 10.6651 0.721983 10.3709 1.04396 10.2789L3.89015 9.46566C5.13593 9.10972 6.10972 8.13593 6.46566 6.89015L7.27886 4.04396C7.37085 3.72198 7.66514 3.5 8 3.5Z" fill="#4A7C4C"/>
<path fill-rule="evenodd" clip-rule="evenodd" d="M17 0.5C17.3442 0.5 17.6441 0.734223 17.7276 1.0681L17.9865 2.10356C18.2216 3.04406 18.9559 3.7784 19.8964 4.01353L20.9319 4.27239C21.2658 4.35586 21.5 4.65585 21.5 5C21.5 5.34415 21.2658 5.64414 20.9319 5.72761L19.8964 5.98647C18.9559 6.2216 18.2216 6.95594 17.9865 7.89644L17.7276 8.9319C17.6441 9.26578 17.3442 9.5 17 9.5C16.6558 9.5 16.3559 9.26578 16.2724 8.9319L16.0135 7.89644C15.7784 6.95594 15.0441 6.2216 14.1036 5.98647L13.0681 5.72761C12.7342 5.64414 12.5 5.34415 12.5 5C12.5 4.65585 12.7342 4.35586 13.0681 4.27239L14.1036 4.01353C15.0441 3.7784 15.7784 3.04406 16.0135 2.10356L16.2724 1.0681C16.3559 0.734223 16.6558 0.5 17 0.5Z" fill="#4A7C4C"/>
<path fill-rule="evenodd" clip-rule="evenodd" d="M15.5 14C15.8228 14 16.1094 14.2066 16.2115 14.5128L16.6058 15.6956C16.7551 16.1435 17.1065 16.4949 17.5544 16.6442L18.7372 17.0385C19.0434 17.1406 19.25 17.4272 19.25 17.75C19.25 18.0728 19.0434 18.3594 18.7372 18.4615L17.5544 18.8558C17.1065 19.0051 16.7551 19.3565 16.6058 19.8044L16.2115 20.9872C16.1094 21.2934 15.8228 21.5 15.5 21.5C15.1772 21.5 14.8906 21.2934 14.7885 20.9872L14.3942 19.8044C14.2449 19.3565 13.8935 19.0051 13.4456 18.8558L12.2628 18.4615C11.9566 18.3594 11.75 18.0728 11.75 17.75C11.75 17.4272 11.9566 17.1406 12.2628 17.0385L13.4456 16.6442C13.8935 16.4949 14.2449 16.1435 14.3942 15.6956L14.7885 14.5128C14.8906 14.2066 15.1772 14 15.5 14Z" fill="#4A7C4C"/>
</svg>
